# xmcd CD database file
# Copyright (C) 1995-1998 Ti Kan
#
# Track frame offsets:
#	150
#	16550
#	29150
#	42425
#	54025
#	65562
#	77487
#	86350
#	99725
#	109875
#	120712
#	138700
#	150587
#	159062
#	171837
#	188662
#	200850
#	214350
#	223912
#	235812
#
# Disc length: 3319 seconds
#
# Revision: 1
# Processed by: cddbd v1.4PL0 Copyright (c) Steve Scherf et al.
# Submitted via: CDex 1.30Release
#
DISCID=150cf514
DTITLE=Dave Dudley - Here He Is! Dave Dudley
DYEAR=1986
DGENRE=Country
TTITLE0=When My Blue Moon Turns To Gold Again
TTITLE1=Salvation Arms
TTITLE2=A Friend Named Wine
TTITLE3=Mary Lou You Took The Party With You
TTITLE4=Ain't That A Shame
TTITLE5=Homer And Cole
TTITLE6=Give Me Back The Old Familiar Feeling
TTITLE7=Counterfeit Cowboy
TTITLE8=Beautiful Love Song
TTITLE9=My Sunny Overgrown Country Town (Get me back to Tennessee)
TTITLE10=Rooster Hill
TTITLE11=Eagles Fly Alone
TTITLE12=Sugarland USA
TTITLE13=Let Me Dream
TTITLE14=The Tavern Telephone
TTITLE15=If I Could Change Mary's Mind
TTITLE16=I Was Country Before Barbara Mandrell
TTITLE17=Truck Drivin' Son-Of-A-Gun
TTITLE18=Mad
TTITLE19=The Pool Shark
EXTD=YEAR: 1986 ID3G:   2
EXTT0=
EXTT1=
EXTT2=
EXTT3=
EXTT4=
EXTT5=
EXTT6=
EXTT7=
EXTT8=
EXTT9=
EXTT10=
EXTT11=
EXTT12=
EXTT13=
EXTT14=
EXTT15=
EXTT16=
EXTT17=
EXTT18=
EXTT19=
PLAYORDER=
